Coordinates
version=1
nRows=10
nColumns=40
inDegrees=yes

Units are S.I. units (second, meters, Newtons, ...)
Angles are in degrees.

endheader
time	pelvis_tilt	pelvis_list	pelvis_rotation	pelvis_tx	pelvis_ty	pelvis_tz	hip_flexion_r	hip_adduction_r	hip_rotation_r	knee_angle_r	knee_angle_r_beta	ankle_angle_r	subtalar_angle_r	mtp_angle_r	hip_flexion_l	hip_adduction_l	hip_rotation_l	knee_angle_l	knee_angle_l_beta	ankle_angle_l	subtalar_angle_l	mtp_angle_l	lumbar_extension	lumbar_bending	lumbar_rotation	arm_flex_r	arm_add_r	arm_rot_r	elbow_flex_r	pro_sup_r	wrist_flex_r	wrist_dev_r	arm_flex_l	arm_add_l	arm_rot_l	elbow_flex_l	pro_sup_l	wrist_flex_l	wrist_dev_l
     49.24000000	     -4.20606891	     -4.62850641	      0.33962271	      1.02475108	      0.92854306	      0.41843684	     32.02219093	     -7.22503474	     -6.71201922	     71.45482869	     71.45482869	     -4.42107877	    -17.86897498	      3.86984728	     16.03153804	     -4.48281963	     -3.54172915	     24.93088623	     24.93088623	     15.24947424	    -12.53525739	      2.41126798	    -11.87220533	      5.77674227	      3.61245014	      6.16767644	    -13.57386053	     -9.62737208	     74.24008490	     45.64827440	      0.00000000	      0.00000000	      0.68832939	    -14.20379841	     -2.03276065	     66.61020812	     46.83012872	      0.00000000	      0.00000000
     49.25185714	     -4.22347280	     -4.60480306	      0.02884917	      1.02305629	      0.92950585	      0.41809274	     33.30792244	     -7.26503184	     -7.03558442	     70.22788811	     70.22788811	     -3.63508209	    -18.19254586	      4.08100384	     15.01279522	     -4.36599532	     -3.58737666	     24.02327226	     24.02327226	     15.29830788	    -12.86142162	      2.55747275	    -12.02704945	      5.80811735	      3.80416086	      5.03409108	    -13.58165221	    -10.36082422	     69.51359266	     45.81088591	      0.00000000	      0.00000000	      1.89589094	    -14.60484720	     -2.00447646	     69.36937222	     46.91123434	      0.00000000	      0.00000000
     49.26371429	     -4.19477374	     -4.62225439	     -0.30080098	      1.02143025	      0.93048750	      0.41793968	     34.41233836	     -7.15050591	     -7.33027308	     68.77823456	     68.77823456	     -2.73833594	    -18.38042821	      4.97137491	     13.94497524	     -4.38784450	     -3.96347869	     23.12292373	     23.12292373	     15.38647799	    -12.62243412	      2.35753816	    -12.23449415	      5.83958876	      3.76278258	      4.44962524	    -13.53407522	    -10.73211086	     64.09946046	     45.97907778	      0.00000000	      0.00000000	      2.91014245	    -14.99439462	     -2.41627467	     72.21846986	     47.03651245	      0.00000000	      0.00000000
     49.27557143	     -4.19059343	     -4.66205732	     -0.61516707	      1.01979367	      0.93134414	      0.41788852	     35.40613318	     -6.93402910	     -7.60978231	     67.07577801	     67.07577801	     -1.93147202	    -18.42055143	      5.91476853	     12.93272192	     -4.42190189	     -4.29284654	     22.24780622	     22.24780622	     15.44307232	    -12.44235444	      2.16610434	    -12.41291788	      5.89606307	      3.70401627	      4.12810283	    -13.55451469	    -10.90123044	     58.48113267	     46.14515737	      0.00000000	      0.00000000	      3.98161301	    -15.33341908	     -2.99292293	     74.92052034	     47.17196650	      0.00000000	      0.00000000
     49.28742857	     -4.15093476	     -4.71761473	     -0.93107565	      1.01823429	      0.93215574	      0.41794962	     36.18286678	     -6.62125169	     -7.86242865	     65.02978390	     65.02978390	     -1.43275867	    -18.36184785	      6.18521900	     11.86531614	     -4.47281673	     -4.64454238	     21.34101430	     21.34101430	     15.58813449	    -12.18629418	      2.20375792	    -12.71900188	      5.98810907	      4.30222882	      2.61626778	    -14.03944717	    -10.84581498	     55.51640146	     46.22958886	      0.00000000	      0.00000000	      5.67830884	    -15.21924439	     -3.46554168	     76.98597743	     47.25961267	      0.00000000	      0.00000000
     49.29928571	     -4.24454929	     -4.78066201	     -1.20487018	      1.01657984	      0.93258563	      0.41819374	     36.98880165	     -6.21386928	     -8.05168339	     62.70827687	     62.70827687	     -1.09424189	    -18.07185783	      6.32658209	     11.02847195	     -4.56031861	     -5.01101881	     20.55371128	     20.55371128	     15.61574953	    -11.84668554	      1.71346574	    -12.72623824	      6.03733757	      3.74906137	      3.62048473	    -13.71217084	    -10.98749056	     47.90260541	     46.47240533	      0.00000000	      0.00000000	      6.38453762	    -16.01567778	     -3.66839359	     79.79108225	     47.36321835	      0.00000000	      0.00000000
     49.31114286	     -4.25324074	     -4.84503142	     -1.42496262	      1.01507563	      0.93303694	      0.41849174	     37.46333322	     -5.79812759	     -8.30607748	     59.94375426	     59.94375426	     -1.12184312	    -17.64276400	      5.59532296	     10.08251131	     -4.63216719	     -5.34404563	     19.72237959	     19.72237959	     15.62342102	    -11.52667223	      1.27438703	    -12.87768178	      6.12702616	      3.31246352	      4.00854603	    -13.67675874	    -10.59482268	     42.29517464	     46.60395877	      0.00000000	      0.00000000	      7.15124399	    -16.25148563	     -4.91628568	     82.45378152	     47.54176706	      0.00000000	      0.00000000
     49.32300000	     -4.32704429	     -4.91187513	     -1.64052925	      1.01356948	      0.93319407	      0.41893634	     37.84101069	     -5.34246227	     -8.54009796	     56.82279999	     56.82279999	     -1.29504013	    -16.86801950	      4.39008075	      9.23706546	     -4.73515729	     -5.76229427	     18.95155290	     18.95155290	     15.66914596	    -11.06973788	      0.80295102	    -12.99917642	      6.21012839	      3.20675880	      3.87891596	    -13.76541680	     -9.99908107	     37.90649085	     46.68130993	      0.00000000	      0.00000000	      8.22816551	    -16.58466357	     -5.45622318	     84.83943509	     47.66613080	      0.00000000	      0.00000000
     49.33485714	     -4.38456695	     -4.95935565	     -1.83381284	      1.01219199	      0.93317275	      0.41948637	     38.04282891	     -4.89106886	     -8.75378483	     53.42888394	     53.42888394	     -1.08795269	    -15.45249985	      4.10394397	      8.37431110	     -4.80330298	     -6.11316448	     18.20298110	     18.20298110	     15.86182446	    -10.62932165	      0.63882912	    -13.16340090	      6.29762194	      3.59353711	      2.63346706	    -13.98254659	     -9.74197616	     36.04639002	     46.71833814	      0.00000000	      0.00000000	      9.79687783	    -16.53829034	     -5.80017464	     86.73083760	     47.73887759	      0.00000000	      0.00000000
     49.34671429	     -4.52994319	     -5.01868441	     -1.96918811	      1.01088046	      0.93276941	      0.42016288	     38.05329688	     -4.45442096	     -9.10099988	     49.52691343	     49.52691343	     -1.59126758	    -14.02272915	      1.83325709	      7.66197192	     -4.94938903	     -6.66063083	     17.54047059	     17.54047059	     15.85387387	     -9.88033561	     -0.47603092	    -13.12116966	      6.35316138	      3.10246128	      3.10249520	    -13.88781061	     -8.64827035	     31.06122476	     46.80723663	      0.00000000	      0.00000000	     10.60371519	    -17.34693222	     -5.90222803	     89.20979959	     47.83322519	      0.00000000	      0.00000000
